<svg xmlns="http://www.w3.org/2000/svg" width="900" height="675" aria-label="Business rental management" role="img" viewBox="0 0 900 675"><rect width="900" height="675" fill="#edf1f5"/><rect width="620" height="420" x="140" y="128" fill="#fff" rx="34"/><rect width="160" height="240" x="214" y="204" fill="#0b1f36" rx="18"/><rect width="272" height="280" x="414" y="164" fill="#d4af25" rx="18"/><g fill="#fff" opacity=".95"><rect width="48" height="48" x="452" y="210" rx="10"/><rect width="48" height="48" x="526" y="210" rx="10"/><rect width="48" height="48" x="600" y="210" rx="10"/><rect width="48" height="48" x="452" y="294" rx="10"/><rect width="48" height="48" x="526" y="294" rx="10"/><rect width="48" height="48" x="600" y="294" rx="10"/></g><rect width="88" height="22" x="250" y="246" fill="#fff" opacity=".82" rx="11"/><rect width="88" height="22" x="250" y="304" fill="#fff" opacity=".82" rx="11"/><rect width="88" height="22" x="250" y="362" fill="#fff" opacity=".82" rx="11"/><rect width="540" height="28" x="180" y="488" fill="#0b1f36" opacity=".12" rx="14"/></svg>