<svg xmlns="http://www.w3.org/2000/svg" width="900" height="675" viewBox="0 0 900 675" role="img" aria-label="Rental application support">
  <rect width="900" height="675" fill="#eef3f7"/>
  <rect x="88" y="92" width="724" height="490" rx="38" fill="#ffffff"/>
  <rect x="146" y="150" width="268" height="34" rx="17" fill="#0b1f36" opacity=".18"/>
  <rect x="146" y="228" width="360" height="22" rx="11" fill="#0b1f36" opacity=".12"/>
  <rect x="146" y="286" width="310" height="22" rx="11" fill="#0b1f36" opacity=".12"/>
  <rect x="146" y="344" width="390" height="22" rx="11" fill="#0b1f36" opacity=".12"/>
  <rect x="146" y="430" width="180" height="58" rx="29" fill="#d4af25"/>
  <circle cx="650" cy="258" r="72" fill="#0b1f36"/>
  <circle cx="650" cy="220" r="26" fill="#d4af25"/>
  <path d="M594 316c14-37 39-56 56-56s42 19 56 56z" fill="#ffffff"/>
  <rect x="582" y="386" width="136" height="136" rx="28" fill="#0b1f36" opacity=".08"/>
  <path d="M620 454l24 24 52-70" fill="none" stroke="#d4af25" stroke-width="18" stroke-linecap="round" stroke-linejoin="round"/>
</svg>
