<svg xmlns="http://www.w3.org/2000/svg" width="900" height="675" viewBox="0 0 900 675" role="img" aria-label="Business rental management">
  <rect width="900" height="675" fill="#edf1f5"/>
  <rect x="140" y="128" width="620" height="420" rx="34" fill="#ffffff"/>
  <rect x="214" y="204" width="160" height="240" rx="18" fill="#0b1f36"/>
  <rect x="414" y="164" width="272" height="280" rx="18" fill="#d4af25"/>
  <g fill="#ffffff" opacity=".95">
    <rect x="452" y="210" width="48" height="48" rx="10"/>
    <rect x="526" y="210" width="48" height="48" rx="10"/>
    <rect x="600" y="210" width="48" height="48" rx="10"/>
    <rect x="452" y="294" width="48" height="48" rx="10"/>
    <rect x="526" y="294" width="48" height="48" rx="10"/>
    <rect x="600" y="294" width="48" height="48" rx="10"/>
  </g>
  <rect x="250" y="246" width="88" height="22" rx="11" fill="#ffffff" opacity=".82"/>
  <rect x="250" y="304" width="88" height="22" rx="11" fill="#ffffff" opacity=".82"/>
  <rect x="250" y="362" width="88" height="22" rx="11" fill="#ffffff" opacity=".82"/>
  <rect x="180" y="488" width="540" height="28" rx="14" fill="#0b1f36" opacity=".12"/>
</svg>
