<svg xmlns="http://www.w3.org/2000/svg" width="1440" height="900" viewBox="0 0 1440 900" role="img" aria-label="Secure rental approval process">
  <defs>
    <linearGradient id="bg" x1="0" y1="0" x2="1" y2="1">
      <stop offset="0" stop-color="#f8fafc"/>
      <stop offset="0.45" stop-color="#e8eef5"/>
      <stop offset="1" stop-color="#d4af25"/>
    </linearGradient>
    <linearGradient id="navy" x1="0" y1="0" x2="1" y2="1">
      <stop offset="0" stop-color="#0b1f36"/>
      <stop offset="1" stop-color="#061425"/>
    </linearGradient>
  </defs>
  <rect width="1440" height="900" fill="url(#bg)"/>
  <path d="M0 650c155-60 300-70 460-25 190 54 345 70 515 15 175-56 310-46 465 25v235H0z" fill="#0b1f36" opacity=".12"/>
  <rect x="760" y="170" width="420" height="520" rx="36" fill="#fff" opacity=".92"/>
  <rect x="815" y="235" width="220" height="22" rx="11" fill="#0b1f36" opacity=".2"/>
  <rect x="815" y="305" width="300" height="18" rx="9" fill="#0b1f36" opacity=".14"/>
  <rect x="815" y="355" width="260" height="18" rx="9" fill="#0b1f36" opacity=".14"/>
  <rect x="815" y="405" width="310" height="18" rx="9" fill="#0b1f36" opacity=".14"/>
  <rect x="815" y="490" width="150" height="54" rx="27" fill="#d4af25"/>
  <circle cx="405" cy="365" r="118" fill="url(#navy)"/>
  <circle cx="405" cy="315" r="42" fill="#d4af25"/>
  <path d="M312 472c18-62 61-94 93-94s75 32 93 94z" fill="#f8fafc"/>
  <rect x="230" y="545" width="350" height="88" rx="44" fill="#fff" opacity=".9"/>
  <circle cx="305" cy="589" r="22" fill="#d4af25"/>
  <rect x="345" y="570" width="150" height="14" rx="7" fill="#0b1f36" opacity=".2"/>
  <rect x="345" y="600" width="105" height="12" rx="6" fill="#0b1f36" opacity=".14"/>
</svg>
