<svg xmlns="http://www.w3.org/2000/svg" width="900" height="675" aria-label="Rental application support" role="img" viewBox="0 0 900 675"><rect width="900" height="675" fill="#eef3f7"/><rect width="724" height="490" x="88" y="92" fill="#fff" rx="38"/><rect width="268" height="34" x="146" y="150" fill="#0b1f36" opacity=".18" rx="17"/><rect width="360" height="22" x="146" y="228" fill="#0b1f36" opacity=".12" rx="11"/><rect width="310" height="22" x="146" y="286" fill="#0b1f36" opacity=".12" rx="11"/><rect width="390" height="22" x="146" y="344" fill="#0b1f36" opacity=".12" rx="11"/><rect width="180" height="58" x="146" y="430" fill="#d4af25" rx="29"/><circle cx="650" cy="258" r="72" fill="#0b1f36"/><circle cx="650" cy="220" r="26" fill="#d4af25"/><path fill="#fff" d="M594 316c14-37 39-56 56-56s42 19 56 56z"/><rect width="136" height="136" x="582" y="386" fill="#0b1f36" opacity=".08" rx="28"/><path fill="none" stroke="#d4af25" stroke-linecap="round" stroke-linejoin="round" stroke-width="18" d="M620 454l24 24 52-70"/></svg>