<svg xmlns="http://www.w3.org/2000/svg" width="1440" height="900" aria-label="Secure rental approval process" role="img" viewBox="0 0 1440 900"><defs><linearGradient id="bg" x1="0" x2="1" y1="0" y2="1"><stop offset="0" stop-color="#f8fafc"/><stop offset=".45" stop-color="#e8eef5"/><stop offset="1" stop-color="#d4af25"/></linearGradient><linearGradient id="navy" x1="0" x2="1" y1="0" y2="1"><stop offset="0" stop-color="#0b1f36"/><stop offset="1" stop-color="#061425"/></linearGradient></defs><rect width="1440" height="900" fill="url(#bg)"/><path fill="#0b1f36" d="M0 650c155-60 300-70 460-25 190 54 345 70 515 15 175-56 310-46 465 25v235H0z" opacity=".12"/><rect width="420" height="520" x="760" y="170" fill="#fff" opacity=".92" rx="36"/><rect width="220" height="22" x="815" y="235" fill="#0b1f36" opacity=".2" rx="11"/><rect width="300" height="18" x="815" y="305" fill="#0b1f36" opacity=".14" rx="9"/><rect width="260" height="18" x="815" y="355" fill="#0b1f36" opacity=".14" rx="9"/><rect width="310" height="18" x="815" y="405" fill="#0b1f36" opacity=".14" rx="9"/><rect width="150" height="54" x="815" y="490" fill="#d4af25" rx="27"/><circle cx="405" cy="365" r="118" fill="url(#navy)"/><circle cx="405" cy="315" r="42" fill="#d4af25"/><path fill="#f8fafc" d="M312 472c18-62 61-94 93-94s75 32 93 94z"/><rect width="350" height="88" x="230" y="545" fill="#fff" opacity=".9" rx="44"/><circle cx="305" cy="589" r="22" fill="#d4af25"/><rect width="150" height="14" x="345" y="570" fill="#0b1f36" opacity=".2" rx="7"/><rect width="105" height="12" x="345" y="600" fill="#0b1f36" opacity=".14" rx="6"/></svg>